<?xml version="1.0" encoding="UTF-8" standalone="no"?>
<!-- Created with Inkscape (http://www.inkscape.org/) -->

<svg
   xmlns:dc="http://purl.org/dc/elements/1.1/"
   xmlns:cc="http://creativecommons.org/ns#"
   xmlns:rdf="http://www.w3.org/1999/02/22-rdf-syntax-ns#"
   xmlns:svg="http://www.w3.org/2000/svg"
   xmlns="http://www.w3.org/2000/svg"
   xmlns:sodipodi="http://sodipodi.sourceforge.net/DTD/sodipodi-0.dtd"
   xmlns:inkscape="http://www.inkscape.org/namespaces/inkscape"
   width="24"
   height="24"
   viewBox="0 0 6.3499998 6.3499998"
   version="1.1"
   id="svg360"
   inkscape:version="0.92.5 (2060ec1f9f, 2020-04-08)"
   sodipodi:docname="emoji3.svg">
  <defs
     id="defs354" />
  <sodipodi:namedview
     id="base"
     pagecolor="#ffffff"
     bordercolor="#666666"
     borderopacity="1.0"
     inkscape:pageopacity="0.0"
     inkscape:pageshadow="2"
     inkscape:zoom="4"
     inkscape:cx="10.979062"
     inkscape:cy="6.3837388"
     inkscape:document-units="px"
     inkscape:current-layer="layer1"
     showgrid="false"
     inkscape:window-width="1366"
     inkscape:window-height="743"
     inkscape:window-x="0"
     inkscape:window-y="0"
     inkscape:window-maximized="1"
     inkscape:pagecheckerboard="true"
     units="px" />
  <metadata
     id="metadata357">
    <rdf:RDF>
      <cc:Work
         rdf:about="">
        <dc:format>image/svg+xml</dc:format>
        <dc:type
           rdf:resource="http://purl.org/dc/dcmitype/StillImage" />
        <dc:title></dc:title>
      </cc:Work>
    </rdf:RDF>
  </metadata>
  <g
     inkscape:label="Camada 1"
     inkscape:groupmode="layer"
     id="layer1"
     transform="translate(0,-290.65)">
    <g
       id="g173"
       transform="matrix(0.01240234,0,0,0.01240234,7.8128277e-4,290.65326)"
       style="fill:#ffffff">
      <g
         id="g112"
         style="fill:#ffffff">
        <g
           id="g110"
           style="fill:#ffffff">
          <g
             id="g108"
             style="fill:#ffffff">
            <path
               id="path100"
               d="M 368,256 H 144 c -8.837,0 -16,7.163 -16,16 0,70.692 57.308,128 128,128 70.692,0 128,-57.308 128,-128 0,-8.837 -7.163,-16 -16,-16 z M 256,368 c -46.869,0.031 -86.909,-33.787 -94.72,-80 h 189.44 c -7.811,46.213 -47.851,80.031 -94.72,80 z"
               inkscape:connector-curvature="0"
               style="fill:#ffffff" />
            <path
               id="path102"
               d="M 256,0 C 114.615,0 0,114.615 0,256 0,397.385 114.615,512 256,512 397.385,512 512,397.385 512,256 512,114.615 397.385,0 256,0 Z m 0,480 C 132.288,480 32,379.712 32,256 32,132.288 132.288,32 256,32 379.712,32 480,132.288 480,256 480,379.712 379.712,480 256,480 Z"
               inkscape:connector-curvature="0"
               style="fill:#ffffff" />
            <circle
               id="circle104"
               r="32"
               cy="176"
               cx="176"
               style="fill:#ffffff" />
            <circle
               id="circle106"
               r="32"
               cy="176"
               cx="336"
               style="fill:#ffffff" />
          </g>
        </g>
      </g>
      <g
         id="g114"
         style="fill:#ffffff" />
      <g
         id="g116"
         style="fill:#ffffff" />
      <g
         id="g118"
         style="fill:#ffffff" />
      <g
         id="g120"
         style="fill:#ffffff" />
      <g
         id="g122"
         style="fill:#ffffff" />
      <g
         id="g124"
         style="fill:#ffffff" />
      <g
         id="g126"
         style="fill:#ffffff" />
      <g
         id="g128"
         style="fill:#ffffff" />
      <g
         id="g130"
         style="fill:#ffffff" />
      <g
         id="g132"
         style="fill:#ffffff" />
      <g
         id="g134"
         style="fill:#ffffff" />
      <g
         id="g136"
         style="fill:#ffffff" />
      <g
         id="g138"
         style="fill:#ffffff" />
      <g
         id="g140"
         style="fill:#ffffff" />
      <g
         id="g142"
         style="fill:#ffffff" />
    </g>
  </g>
</svg>
